<?xml version="1.0" encoding="iso-8859-1"?>
<!-- Generator: Adobe Illustrator 19.0.0, SVG Export Plug-In . SVG Version: 6.00 Build 0)  -->
<svg version="1.1" id="Capa_1" xmlns="http://www.w3.org/2000/svg" xmlns:xlink="http://www.w3.org/1999/xlink" x="0px" y="0px"
	 viewBox="0 0 512 512" style="enable-background:new 0 0 512 512;" xml:space="preserve">
<path style="fill:#303C42;" d="M469.333,64H42.667C19.135,64,0,83.135,0,106.667v298.667C0,428.865,19.135,448,42.667,448h426.667
	C492.865,448,512,428.865,512,405.333V106.667C512,83.135,492.865,64,469.333,64z"/>
<path style="fill:#FFFFFF;" d="M469.333,85.333c1.168,0,2.177,0.486,3.294,0.667L267.333,252.677
	c-6.938,4.385-16.854,3.677-21.906,0.563L39.365,86.003c1.12-0.182,2.132-0.669,3.302-0.669H469.333z"/>
<path style="fill:#FAFAFA;" d="M490.667,405.333c0,11.76-9.573,21.333-21.333,21.333H42.667c-11.76,0-21.333-9.573-21.333-21.333
	V106.667c0-2.385,0.637-4.585,1.362-6.728l210.221,170.54c6.927,4.479,14.917,6.854,23.083,6.854c7.875,0,15.563-2.198,22.313-6.375
	c0.625-0.323,1.219-0.708,1.76-1.156l209.23-169.868c0.727,2.145,1.363,4.346,1.363,6.733V405.333z"/>
<linearGradient id="SVGID_1_" gradientUnits="userSpaceOnUse" x1="-40.1712" y1="647.2679" x2="-21.8387" y2="628.9354" gradientTransform="matrix(21.3333 0 0 -21.3333 996.3334 13791.667)">
	<stop  offset="0" style="stop-color:#000000;stop-opacity:0.1"/>
	<stop  offset="1" style="stop-color:#000000;stop-opacity:0"/>
</linearGradient>
<path style="fill:url(#SVGID_1_);" d="M469.333,426.667c11.76,0,21.333-9.573,21.333-21.333V106.667
	c0-2.387-0.637-4.589-1.363-6.733l-209.23,169.868c-0.542,0.448-1.135,0.833-1.76,1.156c-6.75,4.177-14.438,6.375-22.313,6.375
	c-8.167,0-16.156-2.375-23.083-6.854L22.695,99.939l326.728,326.728H469.333z"/>
<linearGradient id="SVGID_2_" gradientUnits="userSpaceOnUse" x1="-47.4108" y1="640.4102" x2="-21.9955" y2="628.5585" gradientTransform="matrix(21.3333 0 0 -21.3333 996.3334 13791.667)">
	<stop  offset="0" style="stop-color:#FFFFFF;stop-opacity:0.2"/>
	<stop  offset="1" style="stop-color:#FFFFFF;stop-opacity:0"/>
</linearGradient>
<path style="fill:url(#SVGID_2_);" d="M469.333,64H42.667C19.135,64,0,83.135,0,106.667v298.667C0,428.865,19.135,448,42.667,448
	h426.667C492.865,448,512,428.865,512,405.333V106.667C512,83.135,492.865,64,469.333,64z"/>
<g>
</g>
<g>
</g>
<g>
</g>
<g>
</g>
<g>
</g>
<g>
</g>
<g>
</g>
<g>
</g>
<g>
</g>
<g>
</g>
<g>
</g>
<g>
</g>
<g>
</g>
<g>
</g>
<g>
</g>
</svg>
