<svg id="Capa_1" enable-background="new 0 0 512 512" height="512" viewBox="0 0 512 512" width="512" xmlns="http://www.w3.org/2000/svg"><g><path d="m512 264.035c0-27.287-17.299-50.605-41.503-59.576v-146.558h-428.994v146.558c-24.204 8.971-41.503 32.29-41.503 59.576v122.315h14.236v67.749h483.527v-67.749h14.237zm-440.497-176.134h368.993v112.621h-30v-82.62h-154.496-154.496v82.62h-30v-112.621zm169.497 112.62h-109.496v-52.62h109.496zm30-52.62h109.497v52.62h-109.497zm-241 116.134c0-18.479 15.034-33.514 33.514-33.514h384.973c18.479 0 33.514 15.034 33.514 33.514v92.315h-452.001zm437.764 160.064h-423.528v-37.749h423.527v37.749z"/></g></svg>